<?xml version="1.0" encoding="utf-8"?>
<svg version="1.1" xmlns:xlink="http://www.w3.org/1999/xlink" width="30px" height="30px" xmlns="http://www.w3.org/2000/svg">
  <g transform="matrix(1 0 0 1 -603 -799 )">
    <path d="M 21.73828125 21.806640624999996  C 21.920572916666668 21.630859374999996  22.01171875 21.406250000000004  22.01171875 21.132812499999996  C 22.01171875 20.716145833333332  21.81640625 20.38411458333333  21.42578125 20.136718749999996  C 18.912760416666668 18.639322916666664  16.002604166666668 17.890625000000004  12.6953125 17.890625000000004  C 10.963541666666666 17.890625000000004  9.095052083333334 18.111979166666664  7.08984375 18.554687499999996  C 6.54296875 18.671874999999996  6.26953125 19.010416666666668  6.26953125 19.5703125  C 6.26953125 19.830729166666668  6.357421875 20.055338541666664  6.533203125 20.244140625  C 6.708984375 20.43294270833333  6.940104166666668 20.527343750000004  7.2265625 20.527343750000004  C 7.291666666666668 20.527343750000004  7.532552083333334 20.475260416666668  7.949218749999999 20.371093749999996  C 9.66796875 20.019531249999996  11.25 19.843749999999996  12.6953125 19.843749999999996  C 15.638020833333336 19.843749999999996  18.222656250000004 20.514322916666664  20.44921875 21.85546875  C 20.696614583333332 21.998697916666668  20.911458333333336 22.070312499999996  21.09375 22.070312499999996  C 21.341145833333332 22.070312499999996  21.555989583333336 21.982421874999996  21.73828125 21.806640624999996  Z M 23.544921875 17.763671874999996  C 23.772786458333332 17.535807291666664  23.88671875 17.259114583333332  23.88671875 16.93359375  C 23.88671875 16.412760416666664  23.65885416666667 16.015625000000004  23.203125 15.742187499999998  C 20.1171875 13.906249999999998  16.54947916666667 12.988281250000002  12.5 12.988281250000002  C 10.5078125 12.988281250000002  8.53515625 13.261718749999998  6.58203125 13.808593750000002  C 5.95703125 13.977864583333332  5.64453125 14.394531250000002  5.64453125 15.05859375  C 5.64453125 15.384114583333332  5.758463541666667 15.660807291666663  5.986328125 15.888671874999998  C 6.214192708333333 16.116536458333332  6.490885416666667 16.23046875  6.81640625 16.23046875  C 6.907552083333334 16.23046875  7.1484375 16.178385416666664  7.539062499999999 16.074218750000004  C 9.127604166666668 15.64453125  10.76171875 15.429687500000002  12.44140625 15.429687500000002  C 16.07421875 15.429687500000002  19.251302083333336 16.236979166666664  21.97265625 17.851562499999996  C 22.28515625 18.020833333333332  22.532552083333336 18.10546875  22.71484375 18.10546875  C 23.040364583333332 18.10546875  23.31705729166667 17.991536458333332  23.544921875 17.763671874999996  Z M 25.576171875 13.095703125  C 25.85611979166667 12.828776041666664  25.99609375 12.493489583333334  25.99609375 12.089843749999998  C 25.99609375 11.477864583333332  25.735677083333332 11.022135416666664  25.21484375 10.72265625  C 23.57421875 9.772135416666666  21.66666666666667 9.052734375  19.4921875 8.564453125000002  C 17.317708333333336 8.076171874999998  15.084635416666671 7.832031250000001  12.79296875 7.832031250000001  C 10.13671875 7.832031250000001  7.766927083333334 8.138020833333332  5.68359375 8.749999999999998  C 5.384114583333334 8.841145833333332  5.133463541666668 9.00716145833333  4.931640625 9.248046874999998  C 4.729817708333334 9.488932291666664  4.628906250000001 9.804687499999998  4.62890625 10.1953125  C 4.628906250000001 10.598958333333332  4.762369791666667 10.937499999999998  5.029296875 11.210937499999998  C 5.296223958333334 11.484374999999996  5.631510416666668 11.621093749999998  6.03515625 11.621093749999998  C 6.178385416666668 11.621093749999998  6.438802083333334 11.569010416666664  6.81640625 11.464843750000002  C 8.548177083333334 10.983072916666664  10.546875 10.742187499999998  12.8125 10.742187499999998  C 14.8828125 10.742187499999998  16.897786458333336 10.963541666666664  18.857421875 11.406250000000002  C 20.81705729166667 11.848958333333334  22.46744791666667 12.467447916666666  23.80859375 13.261718749999998  C 24.08203125 13.41796875  24.34244791666667 13.496093749999998  24.58984375 13.496093749999998  C 24.967447916666668 13.496093749999998  25.296223958333332 13.362630208333332  25.576171875 13.095703125  Z M 27.98828125 7.470703125  C 29.32942708333333 9.76888020833333  30 12.278645833333329  30 15  C 30 17.721354166666668  29.32942708333333 20.231119791666664  27.98828125 22.529296875  C 26.64713541666667 24.827473958333332  24.827473958333332 26.647135416666668  22.529296875 27.98828125  C 20.23111979166667 29.329427083333336  17.721354166666668 30  15 30  C 12.278645833333334 30  9.768880208333334 29.329427083333336  7.470703125 27.98828125  C 5.172526041666667 26.647135416666668  3.352864583333334 24.827473958333332  2.01171875 22.529296875  C 0.6705729166666665 20.231119791666664  0 17.721354166666668  0 15  C 0 12.278645833333329  0.6705729166666665 9.76888020833333  2.01171875 7.470703125  C 3.352864583333334 5.172526041666666  5.172526041666667 3.3528645833333304  7.470703125 2.011718749999999  C 9.768880208333334 0.6705729166666641  12.278645833333334 0  15 0  C 17.721354166666668 0  20.23111979166667 0.6705729166666641  22.529296875 2.011718749999999  C 24.827473958333332 3.3528645833333304  26.64713541666667 5.172526041666666  27.98828125 7.470703125  Z " fill-rule="nonzero" fill="#ffffff" stroke="none" transform="matrix(1 0 0 1 603 799 )" />
  </g>
</svg>