<?xml version="1.0" encoding="utf-8"?>
<svg version="1.1" xmlns:xlink="http://www.w3.org/1999/xlink" width="30px" height="30px" xmlns="http://www.w3.org/2000/svg">
  <g transform="matrix(1 0 0 1 -703 -799 )">
    <path d="M 17.3828125 23.90625  C 17.760416666666668 23.90625  17.94921875 23.587239583333336  17.94921875 22.94921875  L 17.94921875 19.882812500000004  C 17.94921875 19.23177083333333  17.760416666666668 18.906249999999996  17.3828125 18.906249999999996  C 17.161458333333336 18.906249999999996  16.946614583333332 19.010416666666668  16.73828125 19.21875  L 16.73828125 23.59375  C 16.946614583333332 23.802083333333332  17.161458333333336 23.90625  17.3828125 23.90625  Z M 21.54296875 19.902343749999996  L 21.54296875 20.56640625  L 22.83203125 20.56640625  L 22.83203125 19.902343749999996  C 22.83203125 19.238281250000004  22.6171875 18.906249999999996  22.1875 18.906249999999996  C 21.7578125 18.906249999999996  21.54296875 19.238281250000004  21.54296875 19.902343749999996  Z M 5.859375 15.371093750000002  L 10.390625 15.371093750000002  L 10.390625 16.738281249999996  L 8.828125 16.738281249999996  L 8.828125 25  L 7.3828125 25  L 7.3828125 16.738281249999996  L 5.859375 16.738281249999996  L 5.859375 15.371093750000002  Z M 13.0078125 17.832031250000004  L 14.31640625 17.832031250000004  L 14.31640625 25  L 13.0078125 25  L 13.0078125 24.21875  C 12.5 24.8046875  12.005208333333336 25.09765625  11.5234375 25.09765625  C 11.09375 25.09765625  10.8203125 24.915364583333332  10.703125 24.55078125  C 10.625 24.329427083333332  10.5859375 23.977864583333332  10.5859375 23.49609375  L 10.5859375 17.832031250000004  L 11.875 17.832031250000004  L 11.875 23.10546875  C 11.875 23.41796875  11.881510416666668 23.58723958333333  11.89453125 23.61328125  C 11.907552083333336 23.80859375  12.005208333333336 23.90625  12.1875 23.90625  C 12.447916666666668 23.90625  12.721354166666666 23.704427083333336  13.0078125 23.30078125  L 13.0078125 17.832031250000004  Z M 19.1015625 18.554687499999996  C 19.192708333333336 18.828125000000004  19.23828125 19.309895833333332  19.23828125 20.000000000000004  L 19.23828125 22.8515625  C 19.23828125 23.528645833333336  19.192708333333336 24.00390625  19.1015625 24.27734375  C 18.945312500000004 24.82421875  18.60026041666667 25.09765625  18.06640625 25.09765625  C 17.610677083333336 25.09765625  17.16796875 24.830729166666668  16.73828125 24.296875  L 16.73828125 25  L 15.429687499999998 25  L 15.429687499999998 15.371093750000002  L 16.73828125 15.371093750000002  L 16.73828125 18.515625  C 17.154947916666668 17.994791666666664  17.59765625 17.734374999999996  18.06640625 17.734374999999996  C 18.60026041666667 17.734374999999996  18.945312500000004 18.007812500000004  19.1015625 18.554687499999996  Z M 22.8125 22.51953125  L 24.140625 22.51953125  L 24.140625 22.6953125  C 24.140625 23.072916666666668  24.12760416666667 23.352864583333336  24.1015625 23.53515625  C 24.0625 23.821614583333336  23.96484375 24.08203125  23.80859375 24.31640625  C 23.45703125 24.837239583333336  22.93619791666667 25.09765625  22.24609375 25.09765625  C 21.569010416666668 25.09765625  21.041666666666668 24.850260416666664  20.6640625 24.35546875  C 20.390625 24.00390625  20.25390625 23.444010416666664  20.25390625 22.67578125  L 20.25390625 20.15625  C 20.25390625 19.38802083333333  20.384114583333336 18.828125000000004  20.64453125 18.476562500000004  C 21.02213541666667 17.981770833333336  21.54296875 17.734374999999996  22.20703125 17.734374999999996  C 22.87109375 17.734374999999996  23.37890625 17.981770833333336  23.73046875 18.476562500000004  C 24.00390625 18.854166666666664  24.140625 19.414062500000004  24.140625 20.15625  L 24.140625 21.640625000000004  L 21.54296875 21.640625000000004  L 21.54296875 22.91015625  C 21.54296875 23.57421875  21.76432291666667 23.90625  22.20703125 23.90625  C 22.51953125 23.90625  22.71484375 23.736979166666664  22.79296875 23.3984375  C 22.79296875 23.385416666666664  22.796223958333336 23.33984375  22.802734375 23.26171875  C 22.80924479166667 23.18359375  22.8125 23.076171875  22.8125 22.939453125  L 22.8125 22.51953125  Z M 14.70703125 5.410156249999999  C 15.123697916666668 5.410156249999999  15.332031250000002 5.748697916666665  15.332031250000002 6.425781250000001  L 15.332031250000002 9.472656250000002  C 15.332031250000002 10.13671875  15.123697916666668 10.468750000000002  14.70703125 10.468750000000002  C 14.290364583333336 10.468750000000002  14.08203125 10.13671875  14.08203125 9.472656250000002  L 14.08203125 6.425781250000001  C 14.08203125 5.748697916666665  14.290364583333336 5.410156249999999  14.70703125 5.410156249999999  Z M 25.3515625 25.4296875  C 25.611979166666668 24.3359375  25.7421875 22.643229166666664  25.7421875 20.351562500000004  C 25.7421875 18.046875  25.618489583333332 16.354166666666664  25.37109375 15.273437499999998  C 25.24088541666667 14.700520833333332  24.9609375 14.222005208333334  24.53125 13.837890625000002  C 24.1015625 13.453776041666664  23.606770833333336 13.229166666666666  23.046875 13.164062500000002  C 21.276041666666668 12.968749999999998  18.593750000000004 12.871093750000002  15 12.871093750000002  C 11.419270833333336 12.871093750000002  8.743489583333334 12.968749999999998  6.97265625 13.164062500000002  C 6.399739583333334 13.229166666666666  5.901692708333334 13.453776041666664  5.478515625 13.837890625000002  C 5.055338541666667 14.222005208333334  4.778645833333333 14.700520833333332  4.6484375 15.273437499999998  C 4.388020833333334 16.40625  4.2578125 18.098958333333336  4.2578125 20.351562500000004  C 4.2578125 22.643229166666664  4.388020833333334 24.3359375  4.6484375 25.4296875  C 4.778645833333333 25.989583333333336  5.055338541666667 26.46484375  5.478515625 26.85546875  C 5.901692708333334 27.24609375  6.393229166666668 27.473958333333336  6.953125 27.5390625  C 8.736979166666666 27.734375  11.419270833333336 27.83203125  15 27.83203125  C 18.580729166666668 27.83203125  21.263020833333336 27.734375  23.046875 27.5390625  C 23.606770833333336 27.473958333333336  24.09830729166667 27.24609375  24.521484375 26.85546875  C 24.944661458333332 26.46484375  25.22135416666667 25.989583333333336  25.3515625 25.4296875  Z M 10.99609375 11.562499999999998  L 10.99609375 7.636718749999999  L 12.75390625 1.855468750000001  L 11.2890625 1.855468750000001  L 10.29296875 5.664062500000001  L 9.2578125 1.855468750000001  L 7.734375 1.855468750000001  C 7.825520833333334 2.154947916666666  7.975260416666667 2.6041666666666643  8.18359375 3.203125000000001  L 8.65234375 4.550781250000001  C 9.108072916666668 5.8919270833333295  9.407552083333334 6.920572916666665  9.55078125 7.636718749999999  L 9.55078125 11.562499999999998  L 10.99609375 11.562499999999998  Z M 16.23046875 10.917968749999998  C 16.50390625 10.566406249999998  16.640625000000004 10.000000000000002  16.640625 9.218749999999998  L 16.640625 6.6796875  C 16.640625000000004 5.924479166666665  16.50390625 5.358072916666664  16.23046875 4.98046875  C 15.852864583333336 4.4856770833333295  15.345052083333336 4.238281249999999  14.70703125 4.238281249999999  C 14.04296875 4.238281249999999  13.53515625 4.4856770833333295  13.18359375 4.98046875  C 12.91015625 5.358072916666664  12.7734375 5.924479166666665  12.7734375 6.6796875  L 12.7734375 9.218749999999998  C 12.7734375 9.97395833333333  12.91015625 10.540364583333332  13.18359375 10.917968749999998  C 13.53515625 11.412760416666666  14.04296875 11.66015625  14.70703125 11.66015625  C 15.345052083333336 11.66015625  15.852864583333336 11.412760416666666  16.23046875 10.917968749999998  Z M 20.17578125 10.78125  L 20.17578125 11.562499999999998  L 21.484375 11.562499999999998  L 21.484375 4.3359375  L 20.17578125 4.3359375  L 20.17578125 9.863281249999998  C 19.88932291666667 10.266927083333334  19.61588541666667 10.468750000000002  19.35546875 10.468750000000002  C 19.16015625 10.468750000000002  19.055989583333332 10.364583333333332  19.04296875 10.156249999999998  C 19.029947916666668 10.130208333333332  19.0234375 9.9609375  19.0234375 9.648437500000002  L 19.0234375 4.3359375  L 17.71484375 4.3359375  L 17.71484375 10.058593750000002  C 17.71484375 10.540364583333332  17.75390625 10.8984375  17.83203125 11.1328125  C 17.97526041666667 11.484375  18.255208333333336 11.66015625  18.671875 11.66015625  C 19.140625 11.66015625  19.641927083333332 11.3671875  20.17578125 10.78125  Z M 28.349609375 1.650390625000001  C 29.449869791666664 2.7506510416666643  30 4.0755208333333295  30 5.625  L 30 24.375  C 30 25.924479166666664  29.449869791666664 27.249348958333336  28.349609375 28.349609375  C 27.249348958333336 29.449869791666664  25.92447916666667 30  24.375 30  L 5.625 30  C 4.075520833333333 30  2.750651041666667 29.449869791666664  1.650390625 28.349609375  C 0.5501302083333333 27.249348958333336  0 25.924479166666664  0 24.375  L 0 5.625  C 0 4.0755208333333295  0.5501302083333333 2.7506510416666643  1.650390625 1.650390625000001  C 2.750651041666667 0.5501302083333315  4.075520833333333 0  5.625 0  L 24.375 0  C 25.92447916666667 0  27.249348958333336 0.5501302083333315  28.349609375 1.650390625000001  Z " fill-rule="nonzero" fill="#ffffff" stroke="none" transform="matrix(1 0 0 1 703 799 )" />
  </g>
</svg>